<svg xmlns="http://www.w3.org/2000/svg" width="14.648" height="14.649" viewBox="0 0 14.648 14.649"><defs><style>.a{fill:#fff;}</style></defs><path class="a" d="M14.627,11.35q-.062-.187-.791-.551-.2-.115-.562-.312t-.661-.364q-.3-.166-.557-.322-.042-.031-.26-.182a2.924,2.924,0,0,0-.37-.224.681.681,0,0,0-.3-.073.863.863,0,0,0-.52.3,5.066,5.066,0,0,0-.572.645,6.273,6.273,0,0,1-.551.645.793.793,0,0,1-.479.3.708.708,0,0,1-.234-.052c-.094-.035-.165-.064-.213-.088s-.131-.073-.249-.146-.184-.113-.2-.12A10.933,10.933,0,0,1,5.67,8.989a10.927,10.927,0,0,1-1.81-2.445q-.01-.021-.12-.2T3.594,6.1a2.255,2.255,0,0,1-.088-.213.7.7,0,0,1-.052-.234.793.793,0,0,1,.3-.479A6.266,6.266,0,0,1,4.4,4.619a5.063,5.063,0,0,0,.645-.572.864.864,0,0,0,.3-.52.679.679,0,0,0-.073-.3,2.892,2.892,0,0,0-.224-.369q-.151-.218-.182-.26-.156-.26-.322-.556t-.364-.661q-.2-.364-.312-.562Q3.5.094,3.308.031A.583.583,0,0,0,3.09,0a3.428,3.428,0,0,0-.734.1,4.12,4.12,0,0,0-.713.218,2.789,2.789,0,0,0-1.1,1.269A4.034,4.034,0,0,0,.01,3.527a4.018,4.018,0,0,0,.036.546,4.489,4.489,0,0,0,.13.6Q.27,5,.327,5.165t.213.577q.156.416.187.51a9.424,9.424,0,0,0,.863,1.821,15.426,15.426,0,0,0,2.242,2.752,15.433,15.433,0,0,0,2.752,2.242,9.438,9.438,0,0,0,1.821.864q.094.031.51.187t.577.213q.161.057.494.151a4.528,4.528,0,0,0,.6.13,3.859,3.859,0,0,0,2.481-.494,2.787,2.787,0,0,0,1.269-1.1,4.1,4.1,0,0,0,.218-.713,3.42,3.42,0,0,0,.1-.733A.58.58,0,0,0,14.627,11.35Z" transform="translate(-0.01)"/></svg>