<svg xmlns="http://www.w3.org/2000/svg" width="14.456" height="14.456" viewBox="0 0 14.456 14.456"><defs><style>.a{fill:#fff;}</style></defs><path class="a" d="M13.911.546A1.784,1.784,0,0,0,12.6,0H1.855A1.785,1.785,0,0,0,.547.546,1.784,1.784,0,0,0,0,1.854V12.6A1.784,1.784,0,0,0,.547,13.91a1.785,1.785,0,0,0,1.308.546H12.6A1.864,1.864,0,0,0,14.457,12.6V1.854A1.784,1.784,0,0,0,13.911.546ZM5.192,5.209a2.84,2.84,0,0,1,2.047-.824A2.852,2.852,0,0,1,9.3,5.209,2.667,2.667,0,0,1,10.147,7.2,2.667,2.667,0,0,1,9.3,9.19a2.851,2.851,0,0,1-2.056.824A2.84,2.84,0,0,1,5.192,9.19,2.667,2.667,0,0,1,4.34,7.2,2.667,2.667,0,0,1,5.192,5.209Zm7.628,7.007a.548.548,0,0,1-.169.409.561.561,0,0,1-.4.165H2.185a.563.563,0,0,1-.574-.574v-6.1H2.937A4.053,4.053,0,0,0,2.749,7.35a4.133,4.133,0,0,0,1.318,3.083,4.4,4.4,0,0,0,3.172,1.275A4.524,4.524,0,0,0,9.5,11.125a4.394,4.394,0,0,0,1.638-1.586,4.17,4.17,0,0,0,.6-2.188,4.053,4.053,0,0,0-.188-1.233H12.82v6.1h0Zm0-8.4a.643.643,0,0,1-.65.649H10.533a.643.643,0,0,1-.649-.649V2.259a.632.632,0,0,1,.188-.456.62.62,0,0,1,.461-.193H12.17a.619.619,0,0,1,.461.193.631.631,0,0,1,.188.456Z" transform="translate(-0.001)"/></svg>