<svg xmlns="http://www.w3.org/2000/svg" width="56.748" height="53.634" viewBox="0 0 56.748 53.634"><defs><style>.a{fill:#496146;}</style></defs><g transform="translate(-3.893 -3.7)"><g transform="translate(3.893 3.7)"><path class="a" d="M30.474,19.77c1-.146,1.995-.314,3-.415.74-.078,1.759-.235,2.353.314a6.464,6.464,0,0,1,1.591,4.482,6.59,6.59,0,0,1-1.7,4.684,4.9,4.9,0,0,1-1,.74c-.258.146-.908.594-1.221.493-.258-.09-.538-.56-.639-.829a3.323,3.323,0,0,1-.134-1.2c.1-3.082,1.513-6.937,4.673-8.012a4.557,4.557,0,0,1,2.421-.157,3.583,3.583,0,0,1,1.894,1.378,11.577,11.577,0,0,1,2.264,4.527,12.8,12.8,0,0,1,.572,2.9,9.088,9.088,0,0,1-.112,2.757,3.111,3.111,0,0,1-1.345,1.916,3.451,3.451,0,0,1-2.3.247c-1.8-.314-2.992-1.883-4-3.272a15.141,15.141,0,0,1-2.544-5.166,5.984,5.984,0,0,1-.168-1.4,5.109,5.109,0,0,1-.011-.717,1.519,1.519,0,0,1,.247-.616,3.947,3.947,0,0,1,.336-.65,1.976,1.976,0,0,1,.5-.269,3.285,3.285,0,0,1,1.289-.515,12.184,12.184,0,0,1,2.858.078,6.677,6.677,0,0,1,2.219.93,22.627,22.627,0,0,1,1.849,1.558,7.808,7.808,0,0,1,1.546,1.67,16.307,16.307,0,0,1,1.849,5.088,11.622,11.622,0,0,1,.224,5.513,4.248,4.248,0,0,1-3.126,3.328,18.1,18.1,0,0,1-6.163.3c-.986-.157-1.95-.493-2.925-.684a15.959,15.959,0,0,1-2.689-.751,14.242,14.242,0,0,1-2.521-1.244A16.574,16.574,0,0,1,27.3,34.987c-.672-.594-1.378-1.109-2.006-1.759a12.319,12.319,0,0,1-1.6-2.051,13.6,13.6,0,0,1-1.177-2.443c-.347-.9-.807-1.771-1.065-2.7a7.872,7.872,0,0,1-.235-2.757,6.174,6.174,0,0,1,1.356-2.633,5.173,5.173,0,0,1,.9-1.188,9.581,9.581,0,0,1,1.121-.784,10.436,10.436,0,0,1,2.331-1.065,23.652,23.652,0,0,1,2.477-.5,23.617,23.617,0,0,1,3.059-.538,25.442,25.442,0,0,1,6.119.314c.986.168,1.995.235,2.958.471a20.648,20.648,0,0,1,2.678.852,19.727,19.727,0,0,1,2.443,1.2,16.872,16.872,0,0,1,2.32,1.883,8.79,8.79,0,0,1,2.846,4.135,13.665,13.665,0,0,1,.728,2.813,4.59,4.59,0,0,1-.146,1.412,4.226,4.226,0,0,1-.784,1.378,4.578,4.578,0,0,1-1.468,1.535,5.138,5.138,0,0,1-2.5.471A18.216,18.216,0,0,1,44.728,33a10.126,10.126,0,0,1-2.723-.8,19.839,19.839,0,0,1-4.83-2.589,11.825,11.825,0,0,1-3.149-4.191,11.413,11.413,0,0,1-.74-2.589,2.187,2.187,0,0,1,.022-1.076,4.17,4.17,0,0,1,.684-1.076,6.835,6.835,0,0,1,4.471-2.633c.919-.168,1.827-.482,2.745-.639a13.154,13.154,0,0,1,2.97-.078,28.136,28.136,0,0,1,5.738,1.289,11.117,11.117,0,0,1,4.606,2.163A10.561,10.561,0,0,1,56.047,22.5a9.786,9.786,0,0,1,1.748,2.577,4.5,4.5,0,0,1-.325,3.765,12.777,12.777,0,0,0-.639,1.378,7.341,7.341,0,0,1-.605,1.39c-.269.4-.583.8-.885,1.177a24.907,24.907,0,0,1-1.86,2.062,56.056,56.056,0,0,1-4.337,3.642A16.143,16.143,0,0,1,44.3,41.173c-.93.325-1.838.695-2.79.953a29.249,29.249,0,0,1-2.958.549,9,9,0,0,1-3-.011c-.986-.191-2.017-.426-2.981-.706A5.315,5.315,0,0,1,30.5,40.815a17.669,17.669,0,0,1-1.636-1.905,4.869,4.869,0,0,1-.684-2.779,17.338,17.338,0,0,1,.471-3.026,16.976,16.976,0,0,1,.661-2.8A18.034,18.034,0,0,1,30.4,27.827a38.68,38.68,0,0,1,3.115-4.494A15.371,15.371,0,0,1,37.4,19.512a15.685,15.685,0,0,1,2.208-1.233c.885-.4,1.726-.941,2.633-1.311a9.591,9.591,0,0,1,2.9-.717c.448-.034.885-.022,1.334-.034A7.685,7.685,0,0,1,48,16.24a5.181,5.181,0,0,1,2.129,1.143,4.861,4.861,0,0,1,1.58,2.006,14.023,14.023,0,0,1,.9,2.488,14.161,14.161,0,0,1,.213,3c0,.527.011,1.042.011,1.569a5.952,5.952,0,0,1-.235,1.67,12.974,12.974,0,0,1-.84,3c-.5.93-1.031,1.871-1.6,2.757a7.1,7.1,0,0,1-1.087,1.165L47.889,36.22a12.436,12.436,0,0,1-2.6,1.681A13.233,13.233,0,0,1,42.3,38.977a10.2,10.2,0,0,1-3.149.191,4.638,4.638,0,0,1-1.378-.359c-.5-.168-1.042-.314-1.524-.527a10.064,10.064,0,0,1-1.266-.807,14.629,14.629,0,0,1-1.3-.874,8.843,8.843,0,0,1-1.771-2.051,20.127,20.127,0,0,1-2.353-5.11c-.291-.941-.527-1.894-.751-2.846a9.575,9.575,0,0,1-.381-2.869c.034-.493.168-.953.235-1.446A7,7,0,0,1,28.928,21a4.784,4.784,0,0,1,1.5-2.208c.37-.314.74-.616,1.109-.93a3.812,3.812,0,0,1,1.356-.605,6.962,6.962,0,0,1,1.468-.459,16.376,16.376,0,0,1,1.659.011,4.373,4.373,0,0,1,1.524.224c.5.179,1.02.325,1.513.527.381.157.616.549.885.852a7.231,7.231,0,0,1,1.065,1.21,6.042,6.042,0,0,1,.325,1.345c.123.527.258,1.053.381,1.591a9.01,9.01,0,0,1,.325,1.524c.045.549.045,1.1.067,1.647a56.922,56.922,0,0,1,.067,6.029c-.235,3.44-.773,7.273-2.835,10.142a7.063,7.063,0,0,1-1.591,1.625A3.513,3.513,0,0,1,36.7,44.1a7.531,7.531,0,0,1-1.569.336,7.237,7.237,0,0,1-1.378-.235,4.756,4.756,0,0,1-1.356-.415,7.208,7.208,0,0,1-1.894-1.378c-.28-.291-.5-.605-.762-.919-.28-.347-.616-.661-.908-1.009a14.161,14.161,0,0,1-1.49-2.152,51.039,51.039,0,0,1-2.118-5.2,24.051,24.051,0,0,1-1.58-5.491c-.078-.471-.134-.941-.179-1.423a4.953,4.953,0,0,1,.157-1.569c.191-.93.314-1.86.493-2.779a11.754,11.754,0,0,1,1.916-4.527,40.5,40.5,0,0,1,3.743-4.113,25.306,25.306,0,0,1,9.267-6.04,39.44,39.44,0,0,1,5.379-1.7A19.919,19.919,0,0,1,47.463,5a3.029,3.029,0,0,1,1.412.157c.5.179,1.02.359,1.524.538-.134-.1-.269-.2-.4-.314.415.583.829,1.177,1.244,1.759A6.189,6.189,0,0,1,52,9.236c.168.65.359,1.289.515,1.939a18.062,18.062,0,0,1,.258,2.2,45.793,45.793,0,0,1,.247,8.494c-.123,1.446-.392,2.869-.56,4.314a33.966,33.966,0,0,1-.706,3.978,23.557,23.557,0,0,1-1.289,4.1c-.515,1.165-.953,2.376-1.546,3.508a17.448,17.448,0,0,1-2.107,3.059,7.906,7.906,0,0,1-2.409,2.2,4.842,4.842,0,0,1-3.384.325A7.372,7.372,0,0,1,38.061,41.2a10.827,10.827,0,0,1-2.028-2.936,25.9,25.9,0,0,1-1.647-3.642,7.16,7.16,0,0,1-.4-1.871c0-.325.056-.65.078-.975s-.011-.661.034-1a3.558,3.558,0,0,1,.56-1.479,3.749,3.749,0,0,1,1.58-1.21,4.492,4.492,0,0,1,1.8-.717,12.282,12.282,0,0,1,2.129.011,21.157,21.157,0,0,1,3.877.986,18.64,18.64,0,0,1,6.7,3.295,16.444,16.444,0,0,1,4.55,6.074,8.016,8.016,0,0,1,.964,3.776,8.961,8.961,0,0,1-.639,3.642,5.425,5.425,0,0,1-1.065,1.356,13.976,13.976,0,0,1-1.21,1.233,5.384,5.384,0,0,1-1.434.829,7.242,7.242,0,0,1-1.961.381A8.333,8.333,0,0,1,46.2,48.8a10.731,10.731,0,0,1-1.883-.9c-.56-.3-1.143-.572-1.692-.885a11.272,11.272,0,0,1-2.689-2.129,22.743,22.743,0,0,1-2.353-3.586,37.221,37.221,0,0,1-3.25-7.62c-.426-1.266-.885-2.521-1.244-3.81a17.011,17.011,0,0,1-.773-4.157,4.464,4.464,0,0,1,1.143-2.958,9.794,9.794,0,0,1,1.154-1.468,5.818,5.818,0,0,1,1.558-.986,13.72,13.72,0,0,1,3.373-.65,7.6,7.6,0,0,1,3.676.415,17.566,17.566,0,0,1,3.115,1.715,11.5,11.5,0,0,1,2.936,2.364,11.221,11.221,0,0,1,1.759,2.835c.269.605.572,1.188.874,1.771a7.441,7.441,0,0,1,.65,2.073,12.428,12.428,0,0,1-.09,4.023,16.178,16.178,0,0,1-.717,3.328,7.625,7.625,0,0,1-4.774,4.561,10.905,10.905,0,0,1-4.012.717c-.65-.011-1.277-.1-1.927-.157-.728-.067-1.457-.09-2.174-.2a39.106,39.106,0,0,1-7.934-2.264,13.748,13.748,0,0,1-3.16-1.726,34.685,34.685,0,0,1-2.79-2.5,13.945,13.945,0,0,1-4.057-6,16.036,16.036,0,0,1-1.109-3.844,11.059,11.059,0,0,1,.381-3.687c.37-1.3,1.009-2.521,1.49-3.776a12.824,12.824,0,0,1,1.748-3.16,20.44,20.44,0,0,1,2.589-2.622,13.346,13.346,0,0,1,3.048-2.2,22.652,22.652,0,0,1,3.664-1.4,14.146,14.146,0,0,1,1.782-.415,10.5,10.5,0,0,1,2.14-.067,7.016,7.016,0,0,1,2.163.247c.661.235,1.367.426,2.006.706A4.8,4.8,0,0,1,42.1,11.6a4.913,4.913,0,0,1,1.221,1.546,19.365,19.365,0,0,1,1.289,4.18c.134,1.356.325,2.734.392,4.1a14.829,14.829,0,0,1-.168,2.107c-.078.773-.157,1.558-.235,2.331a21.579,21.579,0,0,1-1.042,4.079,14.148,14.148,0,0,1-.661,2.017c-.336.684-.717,1.345-1.076,2.006-.314.572-.605,1.154-.93,1.726A10.861,10.861,0,0,1,39.5,37.43a27.013,27.013,0,0,1-2.846,3.037,23.713,23.713,0,0,1-3.07,2.174,29.663,29.663,0,0,1-3.384,1.8,9.423,9.423,0,0,1-3.844.975,2.237,2.237,0,0,1-1.434-.426,5.192,5.192,0,0,1-.908-1.7,8.856,8.856,0,0,1-.471-2.04,10.463,10.463,0,0,1-.157-2.219c.011-.706-.011-1.412.034-2.118a10.263,10.263,0,0,1,.616-2.129c.213-.661.426-1.322.639-1.972a6.346,6.346,0,0,1,1.2-1.7l1.244-1.58c.224-.291.437-.605.684-.874a4.425,4.425,0,0,1,1.042-.717c1.233-.762,2.443-1.58,3.7-2.286a6.129,6.129,0,0,1,1.961-.471c.762-.134,1.524-.269,2.3-.4.684-.123,1.378-.28,2.073-.37a9.287,9.287,0,0,1,2.219.191c1.412.179,2.835.347,4.247.527a10.488,10.488,0,0,1,1.995.605c.684.235,1.356.471,2.04.706a8.758,8.758,0,0,1,1.838.74c.65.4,1.277.84,1.916,1.266a7.567,7.567,0,0,1,1.67,1.311c.482.572.975,1.132,1.457,1.7a8.484,8.484,0,0,1,1.076,1.715c.325.65.706,1.289.986,1.95a17.412,17.412,0,0,1,.616,2.107,6.983,6.983,0,0,1,.37,2.14c-.011.65-.022,1.3-.045,1.95-.011.359.011.728-.022,1.087a6.316,6.316,0,0,1-.28,1.1c-.381,1.356-.695,2.757-1.188,4.079A10.315,10.315,0,0,1,56.1,50.474c-.381.459-.818.829-1.221,1.266-.392.415-.74.874-1.177,1.255-1.894,1.67-4.415,2.051-6.8,2.589a15.829,15.829,0,0,1-3.978.392,21.049,21.049,0,0,1-4.326-.74c-.639-.146-1.322-.258-1.95-.459a12.516,12.516,0,0,1-1.815-.818,30.992,30.992,0,0,1-3.407-1.939A46.549,46.549,0,0,1,25.5,47.258a27.59,27.59,0,0,1-4.8-5.726,2.425,2.425,0,0,1-.493-1.569c.034-.3.146-.583.191-.885a3.7,3.7,0,0,1,.168-.695,4,4,0,0,1,2.152-2.04c1.289-.672,2.566-1.334,3.855-2.006a25.747,25.747,0,0,1,4.1-1.434A40.6,40.6,0,0,1,34.8,31.659l4.27-.84c2.835-.56,5.659-1,8.528-1.345,1.4-.168,2.813-.347,4.213-.493.639-.067,1.277-.112,1.916-.146.359-.011.717-.022,1.076-.022a3.2,3.2,0,0,1,1.154.258,1.921,1.921,0,0,1,1.076.628,6.2,6.2,0,0,1,.762,1.6,13.633,13.633,0,0,1,.706,3.8,4.7,4.7,0,0,1-.874,3.709,5,5,0,0,1-.695.684,5.245,5.245,0,0,1-.885.4,11.5,11.5,0,0,1-2.163.751,50.055,50.055,0,0,1-8.382.885,54.524,54.524,0,0,1-8.662-.28c-1.479-.168-2.97-.336-4.449-.493-.672-.078-1.378-.1-2.04-.247-.717-.157-1.423-.347-2.129-.515-2.712-.65-5.48-1.21-8.124-2.084a50.54,50.54,0,0,1-7.284-3.16,21.089,21.089,0,0,1-6.085-4.079,4.686,4.686,0,0,1-1.513-2.925,19.349,19.349,0,0,1,.191-1.961A6.793,6.793,0,0,1,5.8,23.9a7.244,7.244,0,0,1,1.771-2.622c.359-.336.773-.594,1.154-.908.538-.426,1.009-.919,1.546-1.345a11.059,11.059,0,0,1,3.519-1.625,13.6,13.6,0,0,1,3.552-.572c1.322-.034,2.611-.3,3.945-.269a16.787,16.787,0,0,1,3.956.583,23.239,23.239,0,0,1,3.9,1.614c.628.3,1.244.594,1.871.9a10.6,10.6,0,0,1,1.972,1.02c1.132.863,2.208,1.8,3.317,2.7a6.664,6.664,0,0,1,1.479,1.49c.4.605.807,1.221,1.21,1.827.359.549.728,1.1,1.087,1.647a9.659,9.659,0,0,1,.975,2.028,27,27,0,0,1,1.132,3.877,29.137,29.137,0,0,1,.807,8.057,10.72,10.72,0,0,1-.953,3.776,3.23,3.23,0,0,1-.964,1.255,8.178,8.178,0,0,1-1.513.953,6.933,6.933,0,0,1-3.855.157,9.029,9.029,0,0,1-3.6-1.468c-.549-.347-1.1-.706-1.647-1.053A10.758,10.758,0,0,1,28.782,44.5a12.1,12.1,0,0,1-2.566-2.936,10.753,10.753,0,0,1-.762-3.239,6.93,6.93,0,0,1,.515-3.978c.258-.594.594-1.154.9-1.737A9.518,9.518,0,0,1,28,30.718c.471-.538.941-1.087,1.423-1.625a10.639,10.639,0,0,1,1.692-1.39,10.619,10.619,0,0,1,1.558-1.065,12.4,12.4,0,0,1,1.838-.751A12.24,12.24,0,0,1,36.4,25.44c.65-.1,1.311-.09,1.961-.168,2.7-.336,5.659-.493,8.192.74,2.107,1.031,4.281,1.793,5.95,3.5a9.641,9.641,0,0,1,1.849,2.6c.594,1.233,1.266,2.443,1.782,3.709a15.774,15.774,0,0,1,.84,3.945,24.541,24.541,0,0,1,.146,3.956c-.034.863,1.311.863,1.345,0a25.956,25.956,0,0,0-.9-7.822,22.743,22.743,0,0,0-1.681-3.687,13.685,13.685,0,0,0-1.871-3.037,12.185,12.185,0,0,0-2.331-2.1A17.984,17.984,0,0,0,48.83,25.63c-.605-.28-1.2-.583-1.793-.874a8.959,8.959,0,0,0-2.006-.661,17.041,17.041,0,0,0-3.922-.437c-1.311.011-2.611.224-3.911.336a13.678,13.678,0,0,0-3.6.784,15.71,15.71,0,0,0-1.6.695,11.313,11.313,0,0,0-1.726,1.2,18.457,18.457,0,0,0-1.513,1.143c-.515.482-.964,1.1-1.423,1.625a7.418,7.418,0,0,0-1.121,1.524c-.336.639-.672,1.277-1.009,1.927a9.5,9.5,0,0,0-1.154,3.642,15.762,15.762,0,0,0,.314,3.62,6.841,6.841,0,0,0,1.2,2.9,23.108,23.108,0,0,0,2.667,2.779,19.774,19.774,0,0,0,3.306,2.376,10,10,0,0,0,3.429,1.468c.583.112,1.165.146,1.748.224a6.174,6.174,0,0,0,1.927.034,7.164,7.164,0,0,0,3.194-1.49,5.8,5.8,0,0,0,1.793-2.689,15.272,15.272,0,0,0,.605-7.553c-.157-1.311-.426-2.611-.672-3.9a25.909,25.909,0,0,0-1.031-3.788c-.2-.583-.437-1.154-.672-1.715a11.821,11.821,0,0,0-1.1-1.849c-.762-1.143-1.446-2.4-2.3-3.474A9.262,9.262,0,0,0,37,22.235c-.572-.459-1.132-.919-1.7-1.39-.515-.415-1.02-.84-1.535-1.244a9.439,9.439,0,0,0-1.883-1,32.762,32.762,0,0,0-7.486-3.026,16.759,16.759,0,0,0-5.659-.2c-.661.09-1.311.112-1.972.157a15.409,15.409,0,0,0-6.813,2.118,9.522,9.522,0,0,0-1.4,1.109c-.471.4-.964.762-1.446,1.154a8.233,8.233,0,0,0-1.972,2.3A7.634,7.634,0,0,0,4.1,25.35a8.752,8.752,0,0,0,.011,3.7c.706,2.1,2.633,3.664,4.4,4.863a21.594,21.594,0,0,0,3.183,1.782c1.165.527,2.275,1.177,3.44,1.715a41.325,41.325,0,0,0,7.194,2.555l4.045.975c1.322.314,2.667.74,4.012.953,1.4.213,2.824.314,4.225.471s2.813.359,4.225.459a54.24,54.24,0,0,0,8.427-.045c1.378-.112,2.757-.157,4.124-.336a17.536,17.536,0,0,0,3.956-.773c.594-.235,1.177-.5,1.771-.762a2.378,2.378,0,0,0,.874-.515c.258-.247.493-.515.74-.773a5.1,5.1,0,0,0,1.143-3.429,17.2,17.2,0,0,0-.359-3.709,10.077,10.077,0,0,0-1.244-3.317A4.11,4.11,0,0,0,55.811,27.6a5.514,5.514,0,0,0-1.871-.09c-.717.022-1.423.078-2.129.146q-4.1.437-8.192,1.009c-2.745.392-5.469.986-8.192,1.524a76.057,76.057,0,0,0-8.057,2.364,25.229,25.229,0,0,0-3.754,1.827,14.315,14.315,0,0,0-3.171,1.871,4.259,4.259,0,0,0-1.334,2.364,8.153,8.153,0,0,0-.258,1.636,3.528,3.528,0,0,0,.493,1.67,26.03,26.03,0,0,0,4.494,5.648,39.761,39.761,0,0,0,12.069,8.371,11.952,11.952,0,0,0,1.883.5l2.163.5a15.006,15.006,0,0,0,4,.37,17.635,17.635,0,0,0,3.9-.583,35.494,35.494,0,0,0,3.72-.953A13.506,13.506,0,0,0,56.7,51.83a14.664,14.664,0,0,0,3.059-6.253c.179-.639.359-1.266.538-1.905a6.445,6.445,0,0,0,.247-.941,10.316,10.316,0,0,0,.034-1.177c.011-.65.022-1.3.045-1.95.011-.291.022-.583.022-.863a4.567,4.567,0,0,0-.258-1.221c-.179-.628-.347-1.244-.527-1.871a10.276,10.276,0,0,0-.8-1.961c-.3-.583-.594-1.165-.9-1.759a8.338,8.338,0,0,0-1.2-1.659l-1.378-1.614a6.881,6.881,0,0,0-1.614-1.221c-.583-.381-1.154-.762-1.737-1.143a7.222,7.222,0,0,0-1.8-.863c-1.289-.448-2.589-.9-3.877-1.345a20.5,20.5,0,0,0-4.068-.616l-1.961-.235a6.866,6.866,0,0,0-2.028-.078c-1.378.247-2.768.482-4.146.728a10.508,10.508,0,0,0-2.051.381,13.405,13.405,0,0,0-1.793,1.087c-.605.37-1.2.74-1.8,1.121a12.1,12.1,0,0,0-1.748,1.1,14.293,14.293,0,0,0-1.244,1.58c-.459.583-.919,1.165-1.378,1.759a5.145,5.145,0,0,0-1,1.591c-.224.695-.448,1.39-.672,2.073a18.208,18.208,0,0,0-.605,1.871A12.919,12.919,0,0,0,22,38.629a16.358,16.358,0,0,0-.011,1.961c.078.706.269,1.423.4,2.129a7.2,7.2,0,0,0,.639,1.782,4.4,4.4,0,0,0,.941,1.535,3.945,3.945,0,0,0,3.115.717,18.687,18.687,0,0,0,6.948-2.8A26.08,26.08,0,0,0,37.1,41.834a20.339,20.339,0,0,0,2.723-2.745l1.289-1.49A8.979,8.979,0,0,0,42.3,35.839c.314-.572.616-1.143.93-1.726a17.8,17.8,0,0,0,1-1.883c.5-1.277.818-2.667,1.221-3.989a9.069,9.069,0,0,0,.415-1.894c.078-.74.146-1.479.224-2.219.067-.661.134-1.334.2-1.995a11.852,11.852,0,0,0-.123-2.174c-.067-.65-.123-1.289-.191-1.939a8.48,8.48,0,0,0-.28-1.995c-.224-.65-.459-1.3-.684-1.961a16.557,16.557,0,0,0-.684-1.939,7.26,7.26,0,0,0-1.311-1.446,6.425,6.425,0,0,0-1.39-1.367,16.2,16.2,0,0,0-1.793-.639,6.42,6.42,0,0,0-2.028-.5,17.7,17.7,0,0,0-4,.134,26.155,26.155,0,0,0-3.564,1.087,15.078,15.078,0,0,0-3.227,1.569,25.512,25.512,0,0,0-2.869,2.409,14.522,14.522,0,0,0-2.252,2.577,15.417,15.417,0,0,0-1.636,3.239c-.459,1.2-1.065,2.342-1.412,3.586a12.119,12.119,0,0,0-.448,3.642,8.047,8.047,0,0,0,.179,1.793c.168.672.5,1.334.74,1.995A23.766,23.766,0,0,0,20.6,33.441,14.693,14.693,0,0,0,22.6,36.276c.84.953,1.838,1.771,2.757,2.645A15.67,15.67,0,0,0,28.1,41.028,17.791,17.791,0,0,0,31.4,42.5c1.289.426,2.555.919,3.866,1.278a26.676,26.676,0,0,0,3.877.773,33.59,33.59,0,0,0,3.967.314,11.809,11.809,0,0,0,6.847-2.174,9.022,9.022,0,0,0,3.407-5.446,16.056,16.056,0,0,0,.291-7.329,22.5,22.5,0,0,0-1.569-3.62,12.683,12.683,0,0,0-1.759-2.824,10.615,10.615,0,0,0-2.454-2.241c-.572-.359-1.177-.65-1.726-1.02a10.983,10.983,0,0,0-1.479-.885,10.029,10.029,0,0,0-3.261-.953,5.938,5.938,0,0,0-1.782-.011c-.628.1-1.233.179-1.86.247a7.219,7.219,0,0,0-3.093,1.02,6.744,6.744,0,0,0-1.266.986,17.559,17.559,0,0,0-1.177,1.546,5.667,5.667,0,0,0-1.255,2.936,11.818,11.818,0,0,0,.415,3.8,56.886,56.886,0,0,0,2.443,7.62c.471,1.233.975,2.454,1.524,3.664a32.755,32.755,0,0,0,2.062,3.6,11.594,11.594,0,0,0,5.121,4.841,21.964,21.964,0,0,0,3.44,1.636,8.039,8.039,0,0,0,3.687.168c.628-.1,1.277-.1,1.894-.247a6.674,6.674,0,0,0,1.58-.639A10.826,10.826,0,0,0,55.6,47.4a6.311,6.311,0,0,0,1.715-3.014,7.91,7.91,0,0,0,.179-1.614,16.942,16.942,0,0,0,.056-1.995,11.592,11.592,0,0,0-1.087-3.541A18.174,18.174,0,0,0,54.612,34a17.275,17.275,0,0,0-5.323-4.83A20.364,20.364,0,0,0,46.163,27.7c-.616-.224-1.266-.381-1.905-.56s-1.244-.415-1.883-.594a12.945,12.945,0,0,0-3.765-.459,4.775,4.775,0,0,0-1.871.269c-.605.3-1.2.65-1.793.975a3.592,3.592,0,0,0-1.289,1.1,5.147,5.147,0,0,0-.773,1.524,5.807,5.807,0,0,0-.2,1.524,11.4,11.4,0,0,0-.011,2.051,13.214,13.214,0,0,0,1.165,3.552,30.063,30.063,0,0,0,1.771,3.362,12.819,12.819,0,0,0,2.252,2.544,12.193,12.193,0,0,0,1.356,1.165,5.549,5.549,0,0,0,1.647.672,6.336,6.336,0,0,0,6.04-2.006,19.08,19.08,0,0,0,3.844-5.794c.515-1.244,1.1-2.465,1.513-3.743a36.074,36.074,0,0,0,1.02-3.889c.269-1.322.392-2.656.605-3.989.224-1.356.392-2.712.482-4.079a49.6,49.6,0,0,0-.325-8.158c-.067-.672-.09-1.356-.213-2.017-.123-.684-.359-1.378-.538-2.051a10.7,10.7,0,0,0-.549-1.995,14.172,14.172,0,0,0-1.177-1.681,4.558,4.558,0,0,0-.538-.751,2.08,2.08,0,0,0-.807-.347A6.907,6.907,0,0,0,48.2,3.7a17.7,17.7,0,0,0-4.057.56A33.319,33.319,0,0,0,30.7,10.569a30.007,30.007,0,0,0-2.544,2.521c-.863.908-1.8,1.771-2.6,2.745a13.126,13.126,0,0,0-2.779,5.95c-.1.56-.157,1.121-.269,1.681-.134.684-.336,1.378-.426,2.073a7.488,7.488,0,0,0,.134,1.793c.09.661.191,1.311.336,1.961a56.412,56.412,0,0,0,2.488,7.329,15.915,15.915,0,0,0,1.49,3.115,24.434,24.434,0,0,0,2.118,2.678,10.473,10.473,0,0,0,2.3,2.208,8.815,8.815,0,0,0,1.367.717,9.78,9.78,0,0,0,1.983.437,4.918,4.918,0,0,0,.8.134,5.664,5.664,0,0,0,1.053-.213,5.419,5.419,0,0,0,1.827-.616,8.366,8.366,0,0,0,2.275-2.118,14.614,14.614,0,0,0,2.477-5.838,32.616,32.616,0,0,0,.818-7.654c-.034-1.39-.112-2.779-.157-4.169a9.263,9.263,0,0,0-.157-1.927c-.168-.706-.347-1.412-.515-2.118-.157-.628-.28-1.277-.459-1.905a5.2,5.2,0,0,0-1.188-1.535c-.4-.459-.807-1.121-1.39-1.334-.639-.235-1.277-.448-1.927-.661a3.151,3.151,0,0,0-1.009-.235c-.336-.011-.661,0-1-.011a7.851,7.851,0,0,0-2.051.078c-.65.191-1.3.448-1.939.661a2.882,2.882,0,0,0-.807.347c-.3.213-.572.482-.852.717a9.034,9.034,0,0,0-1.412,1.277,6.723,6.723,0,0,0-.9,1.524,7.019,7.019,0,0,0-.448,1.5c-.112.65-.247,1.289-.314,1.95a11.619,11.619,0,0,0,.515,3.821,35.13,35.13,0,0,0,1.076,3.709,16.289,16.289,0,0,0,3.7,6.186,9.74,9.74,0,0,0,1.4,1.053c.572.37,1.132.829,1.737,1.143a14.144,14.144,0,0,0,1.793.628c.3.1.616.213.919.314a2.962,2.962,0,0,0,1.132.123h1.95a7.3,7.3,0,0,0,2.062-.448,12.751,12.751,0,0,0,1.827-.56c.65-.3,1.266-.74,1.894-1.1a7.285,7.285,0,0,0,1.58-1.076c.527-.527,1.053-1.042,1.569-1.569a6.772,6.772,0,0,0,1.221-1.49c.37-.639.74-1.266,1.1-1.905a6.016,6.016,0,0,0,.773-1.759c.179-.717.347-1.423.527-2.14a6.954,6.954,0,0,0,.28-1.916c-.011-.751-.011-1.49-.022-2.241a11.946,11.946,0,0,0-.471-3.62A10.91,10.91,0,0,0,52.1,17.674a5.632,5.632,0,0,0-1.177-1.188,10.978,10.978,0,0,0-1.322-.953,4.807,4.807,0,0,0-1.524-.515,11.057,11.057,0,0,0-1.927-.034,11.656,11.656,0,0,0-3.776.572c-1.221.415-2.3,1.109-3.474,1.636a16.387,16.387,0,0,0-5.424,3.978c-.874.964-1.558,2.084-2.364,3.1a18.806,18.806,0,0,0-1.939,2.914,20.017,20.017,0,0,0-1.39,3.227,12.269,12.269,0,0,0-.426,1.793c-.123.717-.291,1.423-.448,2.14a8.743,8.743,0,0,0,.045,3.81,4.016,4.016,0,0,0,.695,1.67c.4.493.8.986,1.21,1.479,1.546,1.849,3.956,2.353,6.208,2.79a11.787,11.787,0,0,0,3.967-.022,20.79,20.79,0,0,0,3.788-.84,22.753,22.753,0,0,0,6.589-3.2c1.031-.784,2.028-1.614,3.026-2.421a25.293,25.293,0,0,0,2.656-2.488c.392-.426.762-.863,1.132-1.311a10.918,10.918,0,0,0,1.143-1.535,15.824,15.824,0,0,0,.706-1.748c.247-.616.628-1.177.852-1.8a5.873,5.873,0,0,0,.191-3.317,6.61,6.61,0,0,0-.661-1.748,11.436,11.436,0,0,0-1.266-1.591,14.783,14.783,0,0,0-2.152-2.353,11.009,11.009,0,0,0-2.723-1.58c-1.21-.493-2.51-.706-3.732-1.121a17.607,17.607,0,0,0-3.732-.818,16.919,16.919,0,0,0-3.765.011,13.308,13.308,0,0,0-1.871.426c-.583.146-1.177.235-1.759.381A9.341,9.341,0,0,0,34.4,18.4a5.255,5.255,0,0,0-1.3,1.132A14.79,14.79,0,0,0,32.088,21a4.481,4.481,0,0,0-.034,3.216,10.637,10.637,0,0,0,1.334,3.239,12.415,12.415,0,0,0,4.953,4.729c1.1.56,2.275,1.076,3.418,1.546a11.094,11.094,0,0,0,3.664.818c.605.034,1.2-.022,1.8-.045a11.912,11.912,0,0,0,1.995-.112A4.787,4.787,0,0,0,51.8,33a10.919,10.919,0,0,0,.863-1.177,9.331,9.331,0,0,0,.56-.751,3.384,3.384,0,0,0,.381-1.053,6.419,6.419,0,0,0-.3-3.7c-.179-.56-.269-1.143-.482-1.692a9.647,9.647,0,0,0-.807-1.591,11.026,11.026,0,0,0-2.14-2.533c-.471-.4-.908-.852-1.367-1.277a8.637,8.637,0,0,0-1.625-1.065,20.493,20.493,0,0,0-3.328-1.479,19.684,19.684,0,0,0-3.6-.818c-1.322-.191-2.633-.437-3.978-.538a24.644,24.644,0,0,0-4.068.034c-1.289.112-2.544.482-3.821.684a11.937,11.937,0,0,0-3.2.986,8.693,8.693,0,0,0-2.824,1.894,15.9,15.9,0,0,0-1.065,1.6,8.989,8.989,0,0,0-1.076,1.692,6.048,6.048,0,0,0-.2,1.849,8.757,8.757,0,0,0,.168,1.793,21.261,21.261,0,0,0,1.289,3.541,14.174,14.174,0,0,0,1.636,3.171A13.79,13.79,0,0,0,25.062,35.1c.437.381.885.717,1.322,1.1a19.557,19.557,0,0,0,1.558,1.334,15.912,15.912,0,0,0,3.216,1.737A24.1,24.1,0,0,0,34.7,40.277a25.205,25.205,0,0,0,3.978.773,15.692,15.692,0,0,0,3.967-.247,13.819,13.819,0,0,0,1.827-.325,4.8,4.8,0,0,0,1.457-.773,5.823,5.823,0,0,0,1.95-2.488,11.83,11.83,0,0,0,.056-7.161c-.605-2.264-1.109-4.5-2.689-6.32a9.154,9.154,0,0,0-1.053-1.031c-.437-.359-.829-.751-1.266-1.121a7.909,7.909,0,0,0-2.745-1.535,10.816,10.816,0,0,0-3.552-.314,3.591,3.591,0,0,0-.919.034,5.106,5.106,0,0,0-.9.437c-.594.291-1.177.459-1.5,1.065a3.989,3.989,0,0,0-.717,1.737,9.978,9.978,0,0,0,.078,1.916,14.181,14.181,0,0,0,1.221,3.552A19.374,19.374,0,0,0,36,31.749,10.772,10.772,0,0,0,38.52,34.27c1.659,1.109,4.314,1.244,5.816-.191a4.8,4.8,0,0,0,1.423-2.936,13.007,13.007,0,0,0,.034-1.748,12.564,12.564,0,0,0-.179-2.051A14.469,14.469,0,0,0,42.969,20.9a6.136,6.136,0,0,0-2.376-2.073,5.408,5.408,0,0,0-3.183-.134,7.3,7.3,0,0,0-4.74,4.057,11.514,11.514,0,0,0-1.345,6.41c.134.93.8,2.152,1.782,2.331a4.227,4.227,0,0,0,2.9-1.143,7.6,7.6,0,0,0,2.633-5.816,8,8,0,0,0-1.983-5.7,3.635,3.635,0,0,0-2.869-.751c-1.277.09-2.544.314-3.8.5-.728.022-.37,1.311.482,1.188Z" transform="translate(-3.893 -3.7)"/></g></g></svg>