<svg xmlns="http://www.w3.org/2000/svg" width="10.654" height="15.981" viewBox="0 0 10.654 15.981"><defs><style>.a{fill:#fff;}</style></defs><path class="a" d="M82.183,1.561a5.325,5.325,0,0,0-7.533,0A5.132,5.132,0,0,0,73.09,5.327a4.379,4.379,0,0,0,.343,1.862l3.8,8.053a1.2,1.2,0,0,0,.484.541,1.346,1.346,0,0,0,1.4,0,1.262,1.262,0,0,0,.494-.541L83.4,7.189a4.378,4.378,0,0,0,.343-1.862A5.131,5.131,0,0,0,82.183,1.561ZM80.3,7.21a2.663,2.663,0,0,1-3.766,0,2.566,2.566,0,0,1-.78-1.883,2.566,2.566,0,0,1,.78-1.883,2.662,2.662,0,0,1,3.766,0,2.566,2.566,0,0,1,.78,1.883A2.567,2.567,0,0,1,80.3,7.21Z" transform="translate(-73.09)"/></svg>